<?xml version="1.0" standalone="no"?>
<!DOCTYPE svg PUBLIC "-//W3C//DTD SVG 20010904//EN"
 "http://www.w3.org/TR/2001/REC-SVG-20010904/DTD/svg10.dtd">
<svg version="1.0" xmlns="http://www.w3.org/2000/svg"
 width="512.000000pt" height="512.000000pt" viewBox="0 0 512.000000 512.000000"
 preserveAspectRatio="xMidYMid meet">

<g transform="translate(0.000000,512.000000) scale(0.100000,-0.100000)"
fill="#d07f2d" stroke="none">
<path d="M2215 4986 c-37 -17 -70 -52 -84 -89 -7 -18 -11 -133 -11 -303 l0
-274 440 0 441 0 -3 289 c-3 274 -4 291 -24 317 -11 15 -33 37 -48 48 -26 20
-42 21 -354 23 -258 2 -333 0 -357 -11z"/>
<path d="M2120 4112 c0 -86 4 -132 12 -140 17 -17 839 -17 856 0 8 8 12 54 12
140 l0 128 -440 0 -440 0 0 -128z"/>
<path d="M2142 3776 c-33 -65 -70 -124 -100 -155 -80 -84 -239 -173 -673 -380
-166 -78 -233 -167 -245 -324 -5 -66 186 -2595 202 -2670 7 -34 56 -93 95
-113 42 -21 2236 -21 2278 0 39 20 88 79 95 113 16 75 207 2604 202 2670 -12
161 -77 245 -252 328 -430 205 -597 299 -672 381 -23 25 -66 93 -94 150 l-52
104 -366 0 -366 0 -52 -104z m1045 -357 c52 -33 193 -110 313 -170 240 -120
296 -162 338 -253 52 -110 52 -96 -37 -1376 -61 -877 -86 -1186 -98 -1219 -20
-55 -64 -106 -117 -134 l-41 -22 -963 -3 c-648 -2 -976 1 -1002 8 -62 17 -122
68 -152 130 l-26 55 -82 1180 c-91 1309 -91 1269 -30 1391 44 89 95 127 335
245 110 54 245 128 300 163 l100 64 534 1 534 1 94 -61z"/>
<path d="M2320 3064 c-140 -17 -333 -64 -455 -110 -113 -44 -273 -131 -292
-160 -12 -19 -11 -65 6 -355 13 -200 25 -337 32 -345 10 -12 174 -14 949 -14
775 0 939 2 949 14 16 20 55 669 41 695 -24 45 -254 159 -417 206 -268 78
-545 101 -813 69z"/>
<path d="M1805 1087 c-3 -7 -4 -136 -3 -287 l3 -275 755 0 755 0 0 285 0 285
-753 3 c-601 2 -754 0 -757 -11z"/>
</g>
</svg>
